<svg xmlns="http://www.w3.org/2000/svg" width="66.9956" height="25.8486" viewBox="0 0 66.9956 25.8486">
  <title>Asset 1</title>
  <g>
    <path d="M2.064,1.8838H0V0H6.72V1.8838H4.644V7.7285H2.064Z" style="fill: #fff"/>
    <path d="M7.2,0H9.78V2.7h2.292V0h2.58V7.7285h-2.58v-2.7H9.78v2.7H7.2Z" style="fill: #fff"/>
    <path d="M15.6123,0h6.0122V1.9082H18.1924v.9844H21.18v1.956H18.1924V5.82h3.4321V7.7285H15.6123Z" style="fill: #fff"/>
    <path d="M.48,9H3.06v2.7h2.292V9h2.58v7.7285h-2.58v-2.7H3.06v2.7H.48Z" style="fill: #fff"/>
    <path d="M10.6377,16.4883a2.8551,2.8551,0,0,1-1.8062-2.7725V9h2.58v4.416q0,1.248,1.1758,1.2481t1.1763-1.2481V9h2.58v4.7158a2.8551,2.8551,0,0,1-1.8062,2.7725,4.94,4.94,0,0,1-1.95.36A4.9394,4.9394,0,0,1,10.6377,16.4883Z" style="fill: #fff"/>
    <path d="M17.2437,9h4.1757a2.7591,2.7591,0,0,1,2.1241.7744,2.884,2.884,0,0,1,.72,2.0459,2.4582,2.4582,0,0,1-.378,1.35,2.9362,2.9362,0,0,1-1.0141.9668,1.3728,1.3728,0,0,1,.3843.5274l.9,2.0644h-2.688l-.792-1.7881a.625.625,0,0,0-.1861-.2519.5077.5077,0,0,0-.2939-.0723h-.3721v2.1123h-2.58Zm3.5278,3.624a.9128.9128,0,0,0,.6421-.2041.774.774,0,0,0,.2221-.6.7164.7164,0,0,0-.8042-.8164H19.8237v1.62Z" style="fill: #fff"/>
    <path d="M24.9834,9h4.1758a2.759,2.759,0,0,1,2.124.7744,2.8835,2.8835,0,0,1,.72,2.0459,2.459,2.459,0,0,1-.3779,1.35,2.9365,2.9365,0,0,1-1.0142.9668,1.3718,1.3718,0,0,1,.3843.5274l.9,2.0644h-2.688l-.792-1.7881a.624.624,0,0,0-.186-.2519.508.508,0,0,0-.294-.0723h-.372v2.1123h-2.58Zm3.5278,3.624a.9127.9127,0,0,0,.6421-.2041.7737.7737,0,0,0,.2222-.6.7164.7164,0,0,0-.8042-.8164H27.5635v1.62Z" style="fill: #fff"/>
    <path d="M32.7231,9h2.58v7.7285h-2.58Z" style="fill: #fff"/>
    <path d="M37.1631,15.834a3.7347,3.7347,0,0,1-1.14-2.9453A3.8335,3.8335,0,0,1,37.145,9.9,4.7841,4.7841,0,0,1,40.4634,8.88a7.1628,7.1628,0,0,1,1.272.1025A6.3368,6.3368,0,0,1,42.8633,9.3v2.2441a5.4245,5.4245,0,0,0-2.22-.4794,2.2252,2.2252,0,0,0-1.4937.4316,1.7521,1.7521,0,0,0-.498,1.3926,1.6585,1.6585,0,0,0,.51,1.3554,2.3207,2.3207,0,0,0,1.5059.42,5.4291,5.4291,0,0,0,2.22-.4678v2.2558a6.08,6.08,0,0,1-1.1279.3,7.7207,7.7207,0,0,1-1.272.0966A4.8494,4.8494,0,0,1,37.1631,15.834Z" style="fill: #fff"/>
    <path d="M46.3315,9h2.7l2.9761,7.7285h-2.688l-.6-1.5361H46.6436l-.5879,1.5361h-2.688Zm2.0757,4.3926-.7319-1.8721-.72,1.8721Z" style="fill: #fff"/>
    <path d="M52.7275,9h2.1714l2.544,3.5645V9h2.58v7.7285H57.8276l-2.52-3.5517v3.5517h-2.58Z" style="fill: #fff"/>
    <path d="M60.9829,9h6.0127v1.9082H63.563v.9844h2.9883v1.956H63.563V14.82h3.4326v1.9082H60.9829Z" style="fill: #fff"/>
    <path d="M1.356,24.84A3.7565,3.7565,0,0,1,.24,21.9a3.7848,3.7848,0,0,1,1.1636-2.9883A4.9312,4.9312,0,0,1,4.7759,17.88a7.7452,7.7452,0,0,1,2.4482.3486v2.1953a6.4773,6.4773,0,0,0-2.268-.3593,2.3985,2.3985,0,0,0-1.5542.4375A1.7066,1.7066,0,0,0,2.8682,21.9a1.8187,1.8187,0,0,0,.4257,1.35,1.7832,1.7832,0,0,0,1.29.4141,3.1489,3.1489,0,0,0,.9121-.12V22.752H4.0918V21.1807H7.644v3.9355a4.6621,4.6621,0,0,1-1.2841.5283,6.9033,6.9033,0,0,1-1.7637.2041A4.6755,4.6755,0,0,1,1.356,24.84Z" style="fill: #fff"/>
    <path d="M8.3638,18H12.54a2.759,2.759,0,0,1,2.124.7744,2.8835,2.8835,0,0,1,.72,2.0459,2.459,2.459,0,0,1-.3779,1.35,2.9374,2.9374,0,0,1-1.0142.9668,1.3718,1.3718,0,0,1,.3843.5274l.9,2.0644h-2.688l-.792-1.7881a.6258.6258,0,0,0-.186-.2519.5082.5082,0,0,0-.294-.0723h-.3721v2.1123h-2.58Zm3.5278,3.624a.9128.9128,0,0,0,.6421-.2041.7741.7741,0,0,0,.2222-.6.7164.7164,0,0,0-.8042-.8164H10.9438v1.62Z" style="fill: #fff"/>
    <path d="M16.7031,24.9062a3.9532,3.9532,0,0,1-1.0195-3.03,3.99,3.99,0,0,1,1.0195-3.0537,4.3153,4.3153,0,0,1,3.0244-.9424,4.3149,4.3149,0,0,1,3.024.9424,3.99,3.99,0,0,1,1.02,3.0537,3.9533,3.9533,0,0,1-1.02,3.03,4.3149,4.3149,0,0,1-3.024.9424A4.3153,4.3153,0,0,1,16.7031,24.9062Zm4.0982-1.6621a2.23,2.23,0,0,0,.33-1.3681,2.2784,2.2784,0,0,0-.3242-1.3916,1.2974,1.2974,0,0,0-1.08-.4082,1.3156,1.3156,0,0,0-1.0859.4082,2.2471,2.2471,0,0,0-.33,1.3916,2.2243,2.2243,0,0,0,.33,1.374,1.306,1.306,0,0,0,1.0859.4141A1.283,1.283,0,0,0,20.8013,23.2441Z" style="fill: #fff"/>
    <path d="M26.2373,25.4883a2.8549,2.8549,0,0,1-1.8061-2.7725V18h2.58v4.416q0,1.248,1.1758,1.2481t1.1763-1.2481V18h2.58v4.7158a2.8551,2.8551,0,0,1-1.8062,2.7725,5.4567,5.4567,0,0,1-3.9,0Z" style="fill: #fff"/>
    <path d="M32.8433,18h4.164a2.9914,2.9914,0,0,1,1.5781.3906,2.4546,2.4546,0,0,1,.96,1.05,3.3838,3.3838,0,0,1,.3179,1.4883,3.0544,3.0544,0,0,1-.36,1.4873,2.6236,2.6236,0,0,1-1.02,1.0381,3.0121,3.0121,0,0,1-1.5239.3779H35.4233v1.8965h-2.58Zm3.5161,3.8281a.8514.8514,0,0,0,.6479-.24.9176.9176,0,0,0,.2281-.6592,1.03,1.03,0,0,0-.2042-.6846.7742.7742,0,0,0-.624-.24h-.9839v1.8242Z" style="fill: #fff"/>
  </g>
</svg>
